<?xml version="1.0" encoding="UTF-8" standalone="no"?>
<!DOCTYPE svg PUBLIC "-//W3C//DTD SVG 1.1//EN"
 "http://www.w3.org/Graphics/SVG/1.1/DTD/svg11.dtd">
<!-- Generated by graphviz version 2.40.1 (20161225.0304)
 -->
<!-- Title: dependencies Pages: 1 -->
<svg width="1583pt" height="284pt"
 viewBox="0.00 0.00 1583.00 284.00" xmlns="http://www.w3.org/2000/svg" xmlns:xlink="http://www.w3.org/1999/xlink">
<g id="graph0" class="graph" transform="scale(1 1) rotate(0) translate(4 280)">
<title>dependencies</title>
<polygon fill="#ffffff" stroke="transparent" points="-4,4 -4,-280 1579,-280 1579,4 -4,4"/>
<text text-anchor="start" x="766.5091" y="-42.4" font-family="sans-serif" font-weight="bold" font-size="14.00" fill="#000000">Legend</text>
<polygon fill="#ffffb3" stroke="transparent" points="553.5,-10 553.5,-30 573.5,-30 573.5,-10 553.5,-10"/>
<text text-anchor="start" x="577.129" y="-15.4" font-family="sans-serif" font-size="14.00" fill="#000000"> &#160;Declarations</text>
<polygon fill="#8dd3c7" stroke="transparent" points="666.5,-10 666.5,-30 686.5,-30 686.5,-10 666.5,-10"/>
<text text-anchor="start" x="690.2251" y="-15.4" font-family="sans-serif" font-size="14.00" fill="#000000"> &#160;Module</text>
<polygon fill="#80b1d3" stroke="transparent" points="752.5,-10 752.5,-30 772.5,-30 772.5,-10 752.5,-10"/>
<text text-anchor="start" x="776.2812" y="-15.4" font-family="sans-serif" font-size="14.00" fill="#000000"> &#160;Bootstrap</text>
<polygon fill="#fdb462" stroke="transparent" points="849.5,-10 849.5,-30 869.5,-30 869.5,-10 849.5,-10"/>
<text text-anchor="start" x="873.1732" y="-15.4" font-family="sans-serif" font-size="14.00" fill="#000000"> &#160;Providers</text>
<polygon fill="#fb8072" stroke="transparent" points="945.5,-10 945.5,-30 965.5,-30 965.5,-10 945.5,-10"/>
<text text-anchor="start" x="969.2258" y="-15.4" font-family="sans-serif" font-size="14.00" fill="#000000"> &#160;Exports</text>
<g id="clust1" class="cluster">
<title>cluster_AppModule</title>
<polygon fill="none" stroke="#000000" stroke-dasharray="1,5" points="8,-70 8,-268 1567,-268 1567,-70 8,-70"/>
</g>
<g id="clust2" class="cluster">
<title>cluster_AppModule_declarations</title>
<polygon fill="none" stroke="#000000" points="168,-78 168,-130 1559,-130 1559,-78 168,-78"/>
</g>
<g id="clust12" class="cluster">
<title>cluster_AppModule_imports</title>
<polygon fill="none" stroke="#000000" points="16,-78 16,-130 160,-130 160,-78 16,-78"/>
</g>
<g id="clust14" class="cluster">
<title>cluster_AppModule_bootstrap</title>
<polygon fill="none" stroke="#000000" points="653,-208 653,-260 777,-260 777,-208 653,-208"/>
</g>
<!-- AppComponent -->
<g id="node1" class="node">
<title>AppComponent</title>
<polygon fill="#ffffb3" stroke="#000000" points="1550.9399,-122 1445.0601,-122 1445.0601,-86 1550.9399,-86 1550.9399,-122"/>
<text text-anchor="middle" x="1498" y="-99.8" font-family="Times,serif" font-size="14.00" fill="#000000">AppComponent</text>
</g>
<!-- AppModule -->
<g id="node10" class="node">
<title>AppModule</title>
<polygon fill="#8dd3c7" stroke="#000000" points="756.6571,-187 753.6571,-191 732.6571,-191 729.6571,-187 673.3429,-187 673.3429,-151 756.6571,-151 756.6571,-187"/>
<text text-anchor="middle" x="715" y="-164.8" font-family="Times,serif" font-size="14.00" fill="#000000">AppModule</text>
</g>
<!-- AppComponent&#45;&gt;AppModule -->
<g id="edge1" class="edge">
<title>AppComponent&#45;&gt;AppModule</title>
<path fill="none" stroke="#000000" d="M1498,-122.0109C1498,-144.4852 1498,-180 1498,-180 1498,-180 766.8207,-180 766.8207,-180"/>
<polygon fill="#000000" stroke="#000000" points="766.8207,-176.5001 756.8207,-180 766.8206,-183.5001 766.8207,-176.5001"/>
</g>
<!-- DashboardComponent -->
<g id="node2" class="node">
<title>DashboardComponent</title>
<polygon fill="#ffffb3" stroke="#000000" points="1426.9734,-122 1285.0266,-122 1285.0266,-86 1426.9734,-86 1426.9734,-122"/>
<text text-anchor="middle" x="1356" y="-99.8" font-family="Times,serif" font-size="14.00" fill="#000000">DashboardComponent</text>
</g>
<!-- DashboardComponent&#45;&gt;AppModule -->
<g id="edge2" class="edge">
<title>DashboardComponent&#45;&gt;AppModule</title>
<path fill="none" stroke="#000000" d="M1356,-122.1289C1356,-142.5724 1356,-173 1356,-173 1356,-173 767.0578,-173 767.0578,-173"/>
<polygon fill="#000000" stroke="#000000" points="767.0578,-169.5001 757.0578,-173 767.0578,-176.5001 767.0578,-169.5001"/>
</g>
<!-- DocumentViewTableComponent -->
<g id="node3" class="node">
<title>DocumentViewTableComponent</title>
<polygon fill="#ffffb3" stroke="#000000" points="1266.8403,-122 1065.1597,-122 1065.1597,-86 1266.8403,-86 1266.8403,-122"/>
<text text-anchor="middle" x="1166" y="-99.8" font-family="Times,serif" font-size="14.00" fill="#000000">DocumentViewTableComponent</text>
</g>
<!-- DocumentViewTableComponent&#45;&gt;AppModule -->
<g id="edge3" class="edge">
<title>DocumentViewTableComponent&#45;&gt;AppModule</title>
<path fill="none" stroke="#000000" d="M1166,-122.2667C1166,-140.5552 1166,-166 1166,-166 1166,-166 767.024,-166 767.024,-166"/>
<polygon fill="#000000" stroke="#000000" points="767.024,-162.5001 757.024,-166 767.024,-169.5001 767.024,-162.5001"/>
</g>
<!-- DocumentationComponent -->
<g id="node4" class="node">
<title>DocumentationComponent</title>
<polygon fill="#ffffb3" stroke="#000000" points="1046.6456,-122 879.3544,-122 879.3544,-86 1046.6456,-86 1046.6456,-122"/>
<text text-anchor="middle" x="963" y="-99.8" font-family="Times,serif" font-size="14.00" fill="#000000">DocumentationComponent</text>
</g>
<!-- DocumentationComponent&#45;&gt;AppModule -->
<g id="edge4" class="edge">
<title>DocumentationComponent&#45;&gt;AppModule</title>
<path fill="none" stroke="#000000" d="M963,-122.0091C963,-138.0494 963,-159 963,-159 963,-159 766.7894,-159 766.7894,-159"/>
<polygon fill="#000000" stroke="#000000" points="766.7894,-155.5001 756.7894,-159 766.7893,-162.5001 766.7894,-155.5001"/>
</g>
<!-- FileUploadComponent -->
<g id="node5" class="node">
<title>FileUploadComponent</title>
<polygon fill="#ffffb3" stroke="#000000" points="861.323,-122 716.677,-122 716.677,-86 861.323,-86 861.323,-122"/>
<text text-anchor="middle" x="789" y="-99.8" font-family="Times,serif" font-size="14.00" fill="#000000">FileUploadComponent</text>
</g>
<!-- FileUploadComponent&#45;&gt;AppModule -->
<g id="edge5" class="edge">
<title>FileUploadComponent&#45;&gt;AppModule</title>
<path fill="none" stroke="#000000" d="M736.8335,-122.1061C736.8335,-122.1061 736.8335,-140.991 736.8335,-140.991"/>
<polygon fill="#000000" stroke="#000000" points="733.3335,-140.9909 736.8335,-150.991 740.3335,-140.991 733.3335,-140.9909"/>
</g>
<!-- HomeComponent -->
<g id="node6" class="node">
<title>HomeComponent</title>
<polygon fill="#ffffb3" stroke="#000000" points="698.5451,-122 583.4549,-122 583.4549,-86 698.5451,-86 698.5451,-122"/>
<text text-anchor="middle" x="641" y="-99.8" font-family="Times,serif" font-size="14.00" fill="#000000">HomeComponent</text>
</g>
<!-- HomeComponent&#45;&gt;AppModule -->
<g id="edge6" class="edge">
<title>HomeComponent&#45;&gt;AppModule</title>
<path fill="none" stroke="#000000" d="M685.972,-122.1061C685.972,-122.1061 685.972,-140.991 685.972,-140.991"/>
<polygon fill="#000000" stroke="#000000" points="682.472,-140.9909 685.972,-150.991 689.472,-140.991 682.472,-140.9909"/>
</g>
<!-- SearchComponent -->
<g id="node7" class="node">
<title>SearchComponent</title>
<polygon fill="#ffffb3" stroke="#000000" points="565.9201,-122 446.0799,-122 446.0799,-86 565.9201,-86 565.9201,-122"/>
<text text-anchor="middle" x="506" y="-99.8" font-family="Times,serif" font-size="14.00" fill="#000000">SearchComponent</text>
</g>
<!-- SearchComponent&#45;&gt;AppModule -->
<g id="edge7" class="edge">
<title>SearchComponent&#45;&gt;AppModule</title>
<path fill="none" stroke="#000000" d="M506,-122.0091C506,-138.0494 506,-159 506,-159 506,-159 663.208,-159 663.208,-159"/>
<polygon fill="#000000" stroke="#000000" points="663.2081,-162.5001 673.208,-159 663.208,-155.5001 663.2081,-162.5001"/>
</g>
<!-- SettingsComponent -->
<g id="node8" class="node">
<title>SettingsComponent</title>
<polygon fill="#ffffb3" stroke="#000000" points="428.4468,-122 301.5532,-122 301.5532,-86 428.4468,-86 428.4468,-122"/>
<text text-anchor="middle" x="365" y="-99.8" font-family="Times,serif" font-size="14.00" fill="#000000">SettingsComponent</text>
</g>
<!-- SettingsComponent&#45;&gt;AppModule -->
<g id="edge8" class="edge">
<title>SettingsComponent&#45;&gt;AppModule</title>
<path fill="none" stroke="#000000" d="M365,-122.2667C365,-140.5552 365,-166 365,-166 365,-166 663.1295,-166 663.1295,-166"/>
<polygon fill="#000000" stroke="#000000" points="663.1295,-169.5001 673.1295,-166 663.1294,-162.5001 663.1295,-169.5001"/>
</g>
<!-- TagsComponent -->
<g id="node9" class="node">
<title>TagsComponent</title>
<polygon fill="#ffffb3" stroke="#000000" points="284.0452,-122 175.9548,-122 175.9548,-86 284.0452,-86 284.0452,-122"/>
<text text-anchor="middle" x="230" y="-99.8" font-family="Times,serif" font-size="14.00" fill="#000000">TagsComponent</text>
</g>
<!-- TagsComponent&#45;&gt;AppModule -->
<g id="edge9" class="edge">
<title>TagsComponent&#45;&gt;AppModule</title>
<path fill="none" stroke="#000000" d="M230,-122.1289C230,-142.5724 230,-173 230,-173 230,-173 663.2294,-173 663.2294,-173"/>
<polygon fill="#000000" stroke="#000000" points="663.2294,-176.5001 673.2294,-173 663.2294,-169.5001 663.2294,-176.5001"/>
</g>
<!-- AppComponent  -->
<g id="node12" class="node">
<title>AppComponent </title>
<polygon fill="#80b1d3" stroke="#000000" points="769.439,-252 660.561,-252 660.561,-216 769.439,-216 769.439,-252"/>
<text text-anchor="middle" x="715" y="-229.8" font-family="Times,serif" font-size="14.00" fill="#000000">AppComponent </text>
</g>
<!-- AppModule&#45;&gt;AppComponent  -->
<g id="edge11" class="edge">
<title>AppModule&#45;&gt;AppComponent </title>
<path fill="none" stroke="#000000" stroke-dasharray="1,5" d="M715,-187.1061C715,-187.1061 715,-205.991 715,-205.991"/>
<polygon fill="#000000" stroke="#000000" points="711.5001,-205.9909 715,-215.991 718.5001,-205.991 711.5001,-205.9909"/>
</g>
<!-- AppRoutingModule -->
<g id="node11" class="node">
<title>AppRoutingModule</title>
<polygon fill="#8dd3c7" stroke="#000000" points="152.2744,-122 149.2744,-126 128.2744,-126 125.2744,-122 23.7256,-122 23.7256,-86 152.2744,-86 152.2744,-122"/>
<text text-anchor="middle" x="88" y="-99.8" font-family="Times,serif" font-size="14.00" fill="#000000">AppRoutingModule</text>
</g>
<!-- AppRoutingModule&#45;&gt;AppModule -->
<g id="edge10" class="edge">
<title>AppRoutingModule&#45;&gt;AppModule</title>
<path fill="none" stroke="#000000" d="M88,-122.0109C88,-144.4852 88,-180 88,-180 88,-180 662.8872,-180 662.8872,-180"/>
<polygon fill="#000000" stroke="#000000" points="662.8872,-183.5001 672.8872,-180 662.8871,-176.5001 662.8872,-183.5001"/>
</g>
</g>
</svg>
